<svg version="1.2" xmlns="http://www.w3.org/2000/svg" viewBox="0 0 1601 522" width="1601" height="522">
	<title>corebridge-financial-rgb-600x200-svg</title>
	<style>
		.s0 { fill: #20113e } 
		.s1 { fill: #db65ea } 
		.s2 { fill: #c053ef } 
		.s3 { fill: #902bf8 } 
		.s4 { fill: #4f00ca } 
	</style>
	<g id="Logo_00000022527082148080555850000015932337683257352369_">
		<path id="Descriptor_00000105391009435637250200000000676979679862466228_" fill-rule="evenodd" class="s0" d="m22.3 470.4h-11.7v-16.2h11.7v-7.7c0-7.8 1.9-13.9 6.2-18.2 4-4.2 9.6-6.1 17-6.1 2.2 0 4.6 0.3 6.7 0.5 2.1 0.3 4 0.8 5.1 1.4v15.7c-0.8-0.5-1.9-1.1-3.5-1.3-1.6-0.3-2.4-0.6-4-0.6-2.9 0-5.3 0.8-6.9 2.4-1.6 1.6-2.4 4-2.4 7v6.3h15.2v16.3h-15.2v50.1h-18.2zm55.2-29.3c-1.8 0-3.7-0.5-5.3-1.3-1.6-0.8-2.9-2.2-4-3.8-0.8-1.3-1.3-2.9-1.3-5 0-1.9 0.5-3.8 1.3-5.1 0.8-1.3 2.1-2.7 4-3.7 1.6-0.8 3.5-1.4 5.3-1.4 1.9 0 3.8 0.6 5.4 1.4 1.6 0.8 2.6 2.1 4 3.7 0.8 1.3 1.3 2.9 1.3 5.1 0 1.8-0.5 3.7-1.3 5-1.1 1.4-2.2 2.7-4 3.8-1.9 1-3.8 1.3-5.4 1.3zm-9.3 12.5h18.4v66.6h-18.4zm35.5 0h17.8v9.4h0.3c1.6-2.7 4.5-5.4 8-7.5 3.7-2.1 7.7-3.5 12.5-3.5 5.1 0 9.1 1.1 13.1 3.5 4 2.1 6.9 5.6 9.1 10.1 2.1 4.6 3.4 9.4 3.4 15.2v39.5h-18.4v-37.3c0-2.7-0.5-5.4-1.6-7.2-1-1.9-2.4-3.8-4.5-4.8-1.9-1.1-4.3-1.6-6.7-1.6-2.6 0-5.3 0.5-7.4 1.8-2.2 1.4-4 3-5.4 5.6-1.3 2.4-1.8 5.1-1.8 8v35.2h-18.4zm164.8 0h17.8v9.3h0.3c1.6-2.6 4.5-5.3 8-7.4 3.7-2.2 7.7-3.5 12.5-3.5 5.1 0 9.1 1.1 13.1 3.5 4 2.1 6.9 5.6 9.1 10.1 2.1 4.5 3.4 9.3 3.4 15.2v39.4h-18.4v-37.3c0-2.7-0.5-5.3-1.6-7.2-1-1.8-2.4-3.7-4.5-4.8-1.9-1-4.3-1.6-6.7-1.6-2.6 0-5.3 0.6-7.4 1.9-2.2 1.3-4 2.9-5.4 5.6-1.3 2.4-1.8 5-1.8 8v35.2h-18.4zm112.2 68.2q-10 0-18.4-4.8c-5.6-3.2-9.6-7.2-12.8-12.5-3.2-5.4-4.8-11.2-4.8-17.9 0-6.4 1.6-12.5 4.8-17.9 3-5.3 7.5-9.5 12.8-12.7 5.4-3 11.8-4.8 18.4-4.8 4.6 0 8.6 0.5 12.6 1.8 4 1.4 7.2 3 10.1 5.1 2.7 1.9 5.1 4.3 6.7 6.4l-12 10.9c-1.9-2.1-4.3-4.3-7-5.6-2.6-1.6-5.8-2.1-9.3-2.1-3.5 0-6.4 0.8-9.1 2.1-2.6 1.6-5 4-6.4 6.7-1.6 2.6-2.4 6.1-2.4 9.3 0 3.7 0.8 6.7 2.4 9.3 1.6 2.7 3.8 5.1 6.4 6.7 2.7 1.6 5.9 2.4 9.1 2.4 3.7 0 6.7-0.8 9.3-2.1 2.7-1.6 5.4-3.8 7.5-5.9l12 10.9c-2.9 3.8-6.9 7-12.3 9.6-5 3.7-10.9 5.1-17.6 5.1zm51-80.8c-1.9 0-3.8-0.5-5.4-1.3-1.6-0.8-2.9-2.1-4-3.7-1-1.6-1.3-3-1.3-5.1 0-1.9 0.5-3.7 1.3-5.1 0.8-1.3 2.2-2.6 4-3.7 1.6-0.8 3.5-1.3 5.4-1.3 1.8 0 3.7 0.5 5.3 1.3 1.6 0.8 2.7 2.1 4 3.7 0.8 1.4 1.3 3 1.3 5.1 0 1.9-0.5 3.7-1.3 5.1-1.1 1.3-2.1 2.6-4 3.7-1.9 1.1-3.7 1.3-5.3 1.3zm-9.4 12.6h18.4v66.6h-18.4zm118.4-30.1h18.4v96.7h-18.4zm-328.2 98.1c-3.8 0-7.2-0.8-11.2-2.2-4-1.3-7.2-3.7-10.4-6.3-3-2.7-5.9-6.4-7.8-11-1.8-4.5-2.9-9.3-2.9-15.2 0-5.8 1.1-10.9 2.9-15.2 1.9-4.5 4.6-8 7.5-10.9 2.9-2.6 6.7-5 10.7-6.4 4-1.3 7.7-1.8 11.4-1.8 4.6 0 8 0.8 11.5 2.1 3.5 1.3 6.1 3.5 8.3 5.6v-6.7h18.4v66.9h-18.4v-7.7c-2.2 2.4-5.1 4.8-8.3 6.4-3.5 1.6-7.2 2.4-11.7 2.4zm3.4-16.5c2.4 0 4.8-0.6 7-1.4 2.1-0.8 4-2.1 5.3-4 1.3-1.6 2.7-3.7 3.7-5.8 0.8-2.2 1.4-4.6 1.4-7 0-2.4-0.6-4.8-1.4-6.9-0.8-2.1-1.8-4.3-3.7-5.6-1.3-1.6-3.5-2.7-5.3-4-2.2-0.8-4.6-1.3-7-1.3-2.4 0-5 0.5-7.2 1.3-2.1 0.8-4.2 2.1-5.6 3.7-1.6 1.6-2.6 3.8-3.7 5.6-0.8 2.2-1.3 4.6-1.3 7.2 0 2.4 0.5 5.1 1.3 7.2 0.8 2.2 2.1 4.3 3.7 5.6 1.6 1.6 3.8 2.7 5.6 4 2.2 1.1 4.8 1.4 7.2 1.4zm269.6 16.5c-3.7 0-7.2-0.8-11.2-2.2-4-1.3-7.2-3.7-10.4-6.3-2.9-2.7-5.8-6.4-7.7-11-1.9-4.5-2.9-9.3-2.9-15.2 0-5.8 1-10.9 2.9-15.2 1.9-4.5 4.5-8 7.5-10.9 2.9-2.6 6.6-5 10.6-6.4 4-1.3 7.8-1.8 11.5-1.8 4.5 0 8 0.8 11.5 2.1 3.4 1.3 6.1 3.5 8.2 5.6v-6.7h18.4v66.9h-18.4v-7.7c-2.1 2.4-5 4.8-8.2 6.4-3.8 1.6-7.5 2.4-11.8 2.4zm3.8-16.5c2.4 0 4.8-0.6 6.9-1.4 2.1-0.8 4-2.1 5.3-4 1.4-1.6 2.7-3.7 3.8-5.8 0.8-2.2 1.3-4.6 1.3-7 0-2.4-0.5-4.8-1.3-6.9-0.8-2.1-1.9-4.3-3.8-5.6-1.3-1.6-3.4-2.7-5.3-4-2.1-0.8-4.5-1.3-6.9-1.3-2.4 0-5.1 0.5-7.2 1.3-2.2 0.8-4.3 2.1-5.6 3.7-1.6 1.6-2.7 3.8-3.8 5.6-0.8 2.2-1.3 4.6-1.3 7.2 0 2.4 0.5 5.1 1.3 7.2 0.8 2.2 2.2 4.3 3.8 5.6 1.6 1.6 3.7 2.7 5.6 4 2.1 0.6 4.2 1.4 7.2 1.4zm-412.3-129.8c-14.1 0-26.9-3.5-38.7-10.2-11.7-6.6-20.8-15.7-27.4-27.1-6.7-11.8-10.2-24.3-10.2-38.1 0-14.2 3.5-27 10.2-38.7 6.6-11.7 15.7-20.5 27.4-27.2 11.8-6.6 24.6-10.1 38.7-10.1 9.6 0 18.7 1.3 26.7 4.5 8 3 14.9 6.7 21 11 5.9 4.5 11 8.8 14.7 13.5l-23.5 20.6c-4.8-5.1-10.4-9.1-16.8-12.8-6.1-3.8-13.6-5.4-21.6-5.4-8 0-15.2 1.9-21.8 5.9-6.7 4-12 9.1-15.5 15.7-3.7 6.7-5.6 14.4-5.6 22.7 0 8.2 1.9 15.7 5.6 22.6 3.7 7 8.8 12.3 15.5 16 6.6 4 13.8 5.9 21.8 5.9 8.3 0 16-1.9 22.7-5.6 6.7-3.7 12.3-8.3 17.1-13.9l23.7 20.6c-6.4 8-15.2 14.9-26.4 21-11.2 6.4-23.5 9.1-37.6 9.1zm150.4 0.2c-14.1 0-26.9-3.4-38.7-10.1-11.7-6.7-20.8-15.4-27.4-27.2-6.7-11.4-10.2-24.2-10.2-38.1 0-14.1 3.5-26.9 10.2-38.6 6.6-11.5 15.7-20.5 27.4-27.2 11.8-6.7 24.6-10.1 38.7-10.1 14.1 0 27.2 3.4 38.9 10.1 11.8 6.7 20.8 15.4 27.5 27.2 6.7 11.7 10.1 24.5 10.1 38.6 0 13.9-3.4 26.4-10.1 38.1-6.7 11.5-15.7 20.5-27.5 27.2-11.7 6.7-24.8 10.1-38.9 10.1zm0-31.1c8 0 15.2-1.9 21.9-5.9 6.6-3.7 11.4-9.1 15.2-16 3.7-6.9 5.6-14.4 5.6-22.6 0-8.3-1.9-16-5.6-22.7-3.5-6.7-8.6-11.7-15.2-15.7-6.7-4-13.9-5.9-21.9-5.9-8 0-14.9 1.9-21.6 5.9-6.4 3.7-11.5 9-15.2 15.7-3.7 6.7-5.6 14.4-5.6 22.7 0 8.2 1.9 15.7 5.6 22.6 3.5 6.9 8.5 12 15.2 16 6.7 3.7 13.9 5.6 21.6 5.9zm101.3 27.9v-145.2h33.4v19.5h0.8c2.1-3.8 5.3-7.5 9.3-10.7 4-3.2 9.1-6.1 14.9-8.3 5.9-2.4 12-3.4 18.4-3.4h7.2v35.4c-1.6-0.5-3.7-0.8-5.8-1.1-2.2-0.2-4.6-0.5-6.7-0.5-7.2 0-13.6 2.1-19.5 5.3-5.8 3.2-10.4 8.3-13.8 15-3.5 6.6-5.1 13.8-5.1 22.1v71.9zm165.9 3.5c-14.4 0-27.5-3.5-39.2-10.1-11.8-6.7-21.1-15.5-27.8-27.2-6.6-11.5-10.1-24.3-10.1-38.1 0-14.1 3.5-26.9 10.1-38.4q10-17.2 27.2-27.2c11.5-6.6 24-10.1 37.6-10.1 13.6 0 25.9 2.9 37.1 9.1 10.9 6.1 19.5 14.4 25.6 25.3 6.1 10.6 9.1 22.6 9.1 36.2 0 3.2-0.3 6.2-0.6 8.8-0.2 2.4-0.8 4.8-1 6.4h-110.4c1 6.4 3.4 12.3 7.4 17.6 3.8 5.3 8.8 9.6 15.2 12.5 6.4 3.2 13.4 4.6 21.1 4.6 8 0 15.5-1.9 22.1-4.8 6.7-3.2 12.6-7.2 17.9-12l20 21c-5.6 6.7-13.9 12.8-24.8 18.1-10.9 5.4-23.2 7.8-36.5 8.3zm35.4-89.3c-1.6-6.9-3.7-12.8-7.2-17.6-3.4-4.8-7.7-8.8-12.8-11.4-5.3-3-11.2-4.3-17.8-4.3-7 0-13.4 1.3-19 4.3-5.6 2.9-9.8 6.6-13.6 11.4q-5.2 7.2-8 17.6zm141.1 89.6c-7.5 0-14.7-1.4-21.3-3.8-6.7-2.4-12.3-5-17.1-8.8-4.8-3.7-8.3-7.2-10.7-11.1h-0.5v20.5h-33.3v-211.4h33.6v86.7h0.5c2.1-4 5.6-7.5 10.4-11 4.8-3.4 10.4-6.4 17.1-8.8 6.6-2.6 13.6-3.7 21.3-3.7 12 0 22.9 2.9 33.3 9.6 10.4 6.4 18.7 15.4 24.8 26.9 6.4 11.5 9.4 24.5 9.4 38.9 0 14.1-3.2 27.2-9.4 38.7-6.1 11.4-14.4 20.2-24.8 26.9-10.4 6.4-21.3 9.6-33.3 10.4zm-7.7-32c7.7 0 14.6-1.9 20.8-5.9 6.1-3.7 10.9-9 14.6-15.7q5.6-10 5.6-22.4c0-8.2-1.8-16-5.6-22.6-3.4-6.7-8.5-11.8-14.6-15.8-6.2-4-13.1-5.8-20.8-5.8-7.8 0-14.7 1.8-20.8 5.8-6.4 3.8-11.2 9.1-15 15.8-3.7 6.6-5.6 14.4-5.6 22.6q0 12.4 5.6 22.4c3.8 6.7 8.8 11.7 15 15.7 6.4 3.8 13 5.9 20.8 5.9zm100.2 28.2v-145.2h33.4v19.5h0.8c2.1-3.8 5.3-7.5 9.3-10.7 4-3.2 9.1-6.1 14.9-8.3 5.9-2.4 12-3.4 18.4-3.4h7.2v35.4c-1.6-0.5-3.7-0.8-5.8-1.1-2.2-0.2-4.6-0.5-6.7-0.5-7.2 0-13.6 1.6-19.5 5.3-5.8 3.2-10.4 8.3-13.8 15-3.5 6.6-5.1 13.8-5.1 22.1v71.9zm121.1-172.4c-3.2 0-6.7-0.8-9.6-2.7-3.2-1.8-5.6-4.2-7.5-7.1-1.9-2.7-2.7-5.9-2.7-9.6 0-3.5 0.8-6.7 2.7-9.6 1.9-3 4.5-5.4 7.5-7q4.4-2.4 9.6-2.4 5.2 0 9.6 2.4c2.9 1.6 5.6 4.3 7.4 7 1.9 2.6 2.7 5.8 2.7 9.6 0 3.4-0.8 6.9-2.7 9.6-1.8 2.9-4.5 5.3-7.4 7.1-3.2 1.9-6.4 3-9.6 2.7zm16.5 172.7h-33.6v-145.2h33.6zm93.1 1.8c-12 0-23-2.9-33.4-9.6-10.4-6.4-18.6-15.4-24.8-26.9-6.4-11.4-9.3-24.5-9.3-38.6 0-14.4 3.2-27.5 9.3-38.9 6.2-11.5 14.4-20.3 24.8-26.9 10.4-6.2 21.4-9.6 33.4-9.6 7.7 0 14.6 1.3 21.3 3.7 6.7 2.4 12.3 5.3 17.1 8.8 4.8 3.4 8.2 6.9 10.4 10.9h0.5v-86.3h33.9v211h-33.4v-20.5h-0.5c-2.4 4-5.9 7.5-10.7 11.2-4.8 3.5-10.4 6.4-17 8.8-6.7 2.7-13.9 3.7-21.6 2.9zm8-30.4c7.7 0 14.6-1.8 20.8-5.8 6.4-3.7 11.2-9.1 14.9-15.7q5.6-10 5.6-22.4c0-8.3-1.9-16-5.6-22.7-3.7-6.6-8.8-11.7-14.9-15.7-6.2-4-13.1-5.9-20.8-5.9-7.8 0-14.7 1.9-20.8 5.9-6.2 3.7-11 9.1-14.7 15.7-3.7 6.7-5.6 14.4-5.6 22.7q0 12.4 5.6 22.4c3.5 6.6 8.5 11.7 14.7 15.7 6.1 3.7 13 5.6 20.8 5.8zm347.4 31.8c-14.4 0-27.4-3.5-39.2-10.2-11.7-6.6-21-15.4-27.7-27.1-6.7-11.5-10.1-24.3-10.1-38.2 0-14.1 3.4-26.9 10.1-38.3q10-17.2 27.2-27.2c11.5-6.7 24-10.1 37.6-10.1 13.6 0 25.9 2.9 37.1 9 10.9 6.1 19.4 14.4 25.6 25.3 6.1 10.7 9 22.7 9 36.3 0 3.2-0.2 6.1-0.5 8.8-0.3 2.4-0.8 4.8-1.1 6.4h-110.4c1.1 6.4 3.5 12.2 7.5 17.6 3.7 5.3 8.8 9.3 15.2 12.5 6.4 3.2 13.3 4.5 21.1 4.5 8 0 15.4-1.9 22.1-4.8 6.7-3.2 12.5-7.2 17.9-12l20 21.1c-5.6 6.6-13.9 12.8-24.8 18.1-11 5.3-23.5 7.7-36.6 8.3zm35.2-89.3c-1.6-6.9-3.7-12.8-7.2-17.6-3.4-4.8-7.7-8.8-12.8-11.5-5.3-2.9-11.2-4.2-17.8-4.2-7 0-13.4 1.6-19 4.2-5.6 3-9.8 6.7-13.6 11.5q-5.2 7.2-8 17.6zm-169.3 65c-2.1 4-5.9 7.5-10.7 11.2-4.8 3.7-10.4 6.4-17 8.8-6.7 2.4-13.9 3.7-21.4 3.7-12 0-22.9-3.4-33.3-9.6-10.4-6.6-18.7-15.4-24.8-26.9-6.1-11.4-9.3-24.5-9.3-38.6 0-14.4 2.9-27.5 9.3-38.9 6.1-11.5 14.4-20.6 24.8-27 10.4-6.6 21.3-9.5 33.3-9.5 7.8 0 14.7 1 21.4 3.7 6.6 2.4 12.2 5.3 17 8.8 4.8 3.4 8.3 6.9 10.4 10.9h0.6v-20.2h33.6v138.3c0 15.2-1.6 29-8.3 41-6.7 12.3-15.7 21.6-28 28.3-12 6.9-25.6 10.4-41.1 10.4-14.6 0-28.2-3.5-40.8-9.6-12.5-6.7-21.6-14.2-28.2-21.6l23.7-22.4c4.5 4.8 10.7 10.1 18.7 14.4 8 4.5 17.3 6.9 25.8 6.9 9.1 0 17.4-1.9 24-5.9 6.7-4 11.8-9.3 15.5-16.7 3.7-7.2 5.6-15.5 5.6-25.4v-14.1zm-5.3-74.3c-3.8-6.7-8.6-12-15-15.8-6.1-4-13-5.8-20.8-5.8-7.7 0-14.6 1.8-20.8 5.8-6.1 4-11.2 9.1-14.6 15.8-3.8 6.6-5.6 14.3-5.6 22.6q0 12.4 5.6 22.4c3.7 6.7 8.5 12 14.6 15.7 6.2 4 13.1 5.9 20.8 5.9 7.8 0 14.7-1.9 20.8-5.9 6.2-4 11.2-9 15-15.7q5.6-10 5.6-22.4c0-8.5-1.6-16-5.6-22.6z"/>
		<g id="Symbol_00000068651924747006451520000011134194152478345874_">
			<path id="Layer" class="s1" d="m1587.4 28c-7.5 0-13.6-6-13.6-13.5 0-7.6 6.1-13.6 13.6-13.6 7.5 0 13.6 6 13.6 13.6 0 7.5-6.1 13.5-13.6 13.5z"/>
			<path id="Layer" class="s2" d="m1530.6 55.5c-10.2 0-18.4-8.2-18.4-18.4 0-10.2 8.2-18.4 18.4-18.4 10.2 0 18.4 8.2 18.4 18.4 0 10.2-8.2 18.4-18.4 18.4z"/>
			<path id="Layer" class="s2" d="m1568.5 83.2c-8.7 0-15.8-7-15.8-15.7 0-8.7 7.1-15.7 15.8-15.7 8.7 0 15.7 7 15.7 15.7 0 8.7-7 15.7-15.7 15.7z"/>
			<path id="Layer" class="s3" d="m1454.3 94.1c-15.7 0-28.5-12.7-28.5-28.5 0-15.7 12.8-28.5 28.5-28.5 15.8 0 28.6 12.8 28.6 28.5 0 15.8-12.8 28.5-28.6 28.5z"/>
			<path id="Layer" class="s3" d="m1543.1 156.2c-13.4 0-24.2-10.8-24.2-24.2 0-13.4 10.8-24.3 24.2-24.3 13.5 0 24.3 10.9 24.3 24.3 0 13.4-10.8 24.2-24.3 24.2z"/>
			<path id="Layer" class="s4" d="m1350.6 146.4c-22.4 0-40.5-18.1-40.5-40.5 0-22.4 18.1-40.5 40.5-40.5 22.4 0 40.5 18.1 40.5 40.5 0 22.4-18.1 40.5-40.5 40.5z"/>
			<path id="Layer" class="s4" d="m1509.3 254.6c-17.9 0-32.3-14.4-32.3-32.3 0-17.8 14.4-32.2 32.3-32.2 17.8 0 32.2 14.4 32.2 32.2 0 17.9-14.4 32.3-32.2 32.3z"/>
		</g>
	</g>
</svg>